<svg xmlns="http://www.w3.org/2000/svg" xmlns:xlink="http://www.w3.org/1999/xlink" viewBox="0 0 138.57 108.96"><defs><style>.cls-1{fill:url(#Degradado_sin_nombre_6);}</style><linearGradient id="Degradado_sin_nombre_6" x1="-4.55" y1="-5.89" x2="152.21" y2="127.35" gradientUnits="userSpaceOnUse"><stop offset="0" stop-color="#eec6c6"/><stop offset="1" stop-color="#00837c"/></linearGradient></defs><g id="Capa_2" data-name="Capa 2"><g id="Capa_1-2" data-name="Capa 1"><path class="cls-1" d="M138.51,50.66a.94.94,0,0,0-.82-.65l-26.91-1.69-.54,0c.05-.42.09-.87.12-1.38.16-2.48.29-5,.42-7.45.06-1.24.13-2.48.2-3.72.18-3.41-1.81-5.29-5.94-5.59a35.66,35.66,0,0,0-4.73.07,32.36,32.36,0,0,1-3.45.08l-.78-.05.62-.16a16.2,16.2,0,0,0,6.9-3.47,4.78,4.78,0,0,0,1.38-2.1,5.41,5.41,0,0,0,0-2.19A43.22,43.22,0,0,0,99.28,5.42l-.07,0A8,8,0,0,0,93.34.14c-4.16-.8-7.94,1.93-10.41,4.05A61.37,61.37,0,0,0,72,16.48a62.14,62.14,0,0,0-4.23,7.27,10.16,10.16,0,0,0-.69,2.1,3.91,3.91,0,0,0-.88-.22,6,6,0,0,0-3,.6,10,10,0,0,0-.75-2.48,65.09,65.09,0,0,0-4.23-7.27A62,62,0,0,0,47.24,4.19C44.76,2.07,41-.66,36.82.14A8,8,0,0,0,31,5.46l-.07,0a43.22,43.22,0,0,0-5.75,16.91,5.41,5.41,0,0,0,.05,2.19,4.78,4.78,0,0,0,1.38,2.1,16.2,16.2,0,0,0,6.9,3.47l1.19.31c-.57,0-1.16-.06-1.77-.11-3-.21-7.63-.75-9.52,1a5.32,5.32,0,0,0-1.54,4c0,1.67-.09,3.42-.15,5.1-.07,2-.14,4.1-.15,6.15l-.84.33a26,26,0,0,1-7.51,1.82,31.72,31.72,0,0,1-5.68-.09l-.42,0c-2.18-.27-5-1.66-7.07-1.5.29,0,4.27,6.93,4.76,7.65C6.3,57,7.34,59.42,9,61.61c1.06,1.44,6.44-1,7.81-1.34a83.17,83.17,0,0,0,14.47-4.91c-.3,6.5-.6,13.16-.75,19.75a134.56,134.56,0,0,0,.59,13.68c.29,3.86.6,7.86.6,11.8,0,5.07,5.85,7.22,11.27,7.53,9.11.54,18.23.61,26.8.64,3.85,0,8-.1,13.09-.37a26.78,26.78,0,0,1,4.26.26,34.84,34.84,0,0,0,4.07.31,10.81,10.81,0,0,0,4.77-1c1.95-1,3.36-3,4.17-6h0c1.08-4,1-8.41.86-12.7,0-1.3-.06-2.54-.06-3.74,0-2.14-.06-4.33-.12-6.45-.1-3.71-.21-7.54,0-11.19.24-3.48.33-7.11.29-11a17.33,17.33,0,0,0,4.44,2.14c3.13,1,6.39.79,9.54.64.91,0,1.85-.09,2.75-.1,4.94-.09,8.4,1,10.57,3.29a.86.86,0,0,0,.54.28h.22a1,1,0,0,0,.7-.45,91.91,91.91,0,0,1,8.42-11A1.12,1.12,0,0,0,138.51,50.66ZM96.71,32.57a32.11,32.11,0,0,0,3.73-.08,34.86,34.86,0,0,1,4.43-.08c3.32.25,3.93,1.46,3.84,3.2-.07,1.25-.14,2.49-.2,3.73-.13,2.44-.26,5-.42,7.43,0,.41-.06.89-.1,1.34a18.71,18.71,0,0,1-4.17-.85c-3.71-1.29-6.62-4.15-9.69-7.18-1.45-1.44-3-2.92-4.56-4.22a36.44,36.44,0,0,0-5.09-3.43q1.5-.13,3.06-.36Q92.19,32.27,96.71,32.57Zm2.53-22.29a39.79,39.79,0,0,1,3.54,12.35,3.44,3.44,0,0,1,0,1.28A2.53,2.53,0,0,1,102,25a14.11,14.11,0,0,1-5.94,2.92,58.59,58.59,0,0,1-15.86,2.44,23.13,23.13,0,0,0-8.64-2,20.48,20.48,0,0,1,3.5-.27C81.58,25.94,87,22.39,93.17,17.61,95.8,15.56,98.31,13.26,99.24,10.28ZM97.31,8.52c-.35,2.9-2.87,5.22-5.54,7.29-5,3.91-9.54,7-14.56,9.06A37.75,37.75,0,0,1,97.31,7.29,5.06,5.06,0,0,1,97.31,8.52ZM69.78,24.77a60.68,60.68,0,0,1,4.08-7A59.43,59.43,0,0,1,84.4,5.92c3.37-2.89,6.08-4,8.51-3.55a5.56,5.56,0,0,1,3.67,2.77A39.87,39.87,0,0,0,74.13,26h0a40.83,40.83,0,0,1-4.93,1.26h0A6.18,6.18,0,0,1,69.78,24.77ZM64,28.34a4,4,0,0,1,1.92-.45,1.78,1.78,0,0,1,1.26.9,1.93,1.93,0,0,1,.2.44.75.75,0,0,0-.15.16l-3.16,0A3.83,3.83,0,0,1,64,28.34Zm-5.08,5.37c.68-.51,1.65-1.24,2.36-1.72q-1,8.88-1.61,17.82l-16.82.24-3.59.05c1.65-1.47,3.14-3,4.61-4.57a67.57,67.57,0,0,1,5.33-5.21,50.66,50.66,0,0,1,7.6-5.09C57.21,35,57.88,34.5,58.93,33.71ZM37.25,2.37a6.38,6.38,0,0,1,1.08-.1c2.16,0,4.55,1.18,7.43,3.65A59.43,59.43,0,0,1,56.3,17.75a60.68,60.68,0,0,1,4.08,7,6.18,6.18,0,0,1,.6,2.49h0A40.4,40.4,0,0,1,56,26l0,0A39.92,39.92,0,0,0,33.58,5.14,5.56,5.56,0,0,1,37.25,2.37Zm-4.4,4.92A37.73,37.73,0,0,1,53,24.9c-4-1.7-8.59-4.43-14.58-9.09-2.67-2.07-5.18-4.39-5.54-7.29A5.62,5.62,0,0,1,32.85,7.29ZM34.07,27.9A14.11,14.11,0,0,1,28.13,25a2.53,2.53,0,0,1-.76-1.07,3.26,3.26,0,0,1,0-1.28,39.51,39.51,0,0,1,3.53-12.35c.93,3,3.44,5.28,6.07,7.33,7.28,5.66,13.58,9.62,21.8,11.51-.66.2-1.33.36-2,.51-.95.11-1.88.27-2.8.47C48.38,30.79,41.89,30.06,34.07,27.9ZM23.94,40.5c.07-1.7.13-3.46.15-5.16A3.14,3.14,0,0,1,24.9,33c1.17-1.08,5.35-.57,7.82-.39a27.53,27.53,0,0,0,3.6.11L44,32.26c.95.12,1.88.2,2.79.26a90.83,90.83,0,0,0-10.76,6l-1.36.85a105.63,105.63,0,0,1-10.9,6.22C23.83,43.87,23.89,42.17,23.94,40.5ZM16.23,58.32c-2.07.56-4.19,1.14-6.33,1.8A26.37,26.37,0,0,0,6.65,54c-.88-1.37-1.8-2.71-2.58-3.79.73.11,1.63.23,2.75.37l.41.05a34.94,34.94,0,0,0,6,.1,27.88,27.88,0,0,0,8.11-1.94c5-1.86,9.77-4.84,14.38-7.73l1.36-.85C44.31,35.74,51,32,58.49,31.51l-.77.58c-.79.59-1.6,1.2-1.93,1.39a53.05,53.05,0,0,0-7.89,5.29,73.71,73.71,0,0,0-5.49,5.36c-2.87,3-5.58,5.86-9.4,8C27.59,55.24,22.07,56.73,16.23,58.32Zm26.84,47.54c-.93-.06-9.09-.67-9.13-5.28,0-4-.31-8.06-.61-12a133.56,133.56,0,0,1-.58-13.45c.16-7,.49-14.1.81-21,.15-.09.3-.16.44-.25a26.61,26.61,0,0,0,2.37-1.51l6.52-.09,16.65-.24a388,388,0,0,0,.5,54.34C54.46,106.34,48.76,106.19,43.07,105.86Zm26.18.63-6.93,0C60.87,88.38,62,49.77,62,49.77q.61-9.08,1.65-18.08l4.74,0q.65,9,1,18C69.27,49.63,70.12,88.37,69.25,106.49ZM98.56,67.8c-.26,3.76-.15,7.65,0,11.42.06,2.09.12,4.27.12,6.37,0,1.24,0,2.49.06,3.81.1,4.13.21,8.39-.78,12h0c-.64,2.34-1.64,3.85-3,4.5-2.17,1.06-4.93.75-7.59.45a33.78,33.78,0,0,0-3.87-.3l-.75,0c-4.27.22-7.87.34-11.19.37.86-18.13.93-36.42.21-54.62,5,0,10.06.16,15,.37l2.5.11c2.25.09,4.44.1,6.62.08,1,1,2,1.93,3,2.81C98.92,59.72,98.83,63.86,98.56,67.8ZM70.72,33.06c1.28.75,2.6,1.42,3.9,2.07a51.68,51.68,0,0,1,5.4,3,67.63,67.63,0,0,1,11,9.24c.72.74,1.44,1.53,2.15,2.29l.46.5c-1.44,0-2.89,0-4.37-.09L86.81,50c-5-.21-10.08-.42-15.16-.37C71.42,44.07,71.1,38.56,70.72,33.06ZM129,60.65a13.49,13.49,0,0,0-7.12-2.88,27.67,27.67,0,0,0-4-.2c-.93,0-1.88.06-2.8.11-3.14.15-6.11.29-8.94-.57-4.54-1.38-8.09-5.22-11.53-8.93-.71-.77-1.44-1.56-2.17-2.31a69.7,69.7,0,0,0-11.37-9.51,52.07,52.07,0,0,0-5.59-3.11c-1.69-.86-3.43-1.74-5-2.77,5.64-.62,13.58,3.47,18,7.05,1.53,1.24,3,2.69,4.42,4.1,3.09,3,6.28,6.18,10.37,7.61a28.12,28.12,0,0,0,7.43,1.16L135.52,52A93.36,93.36,0,0,0,129,60.65Z"/></g></g></svg>