<svg xmlns="http://www.w3.org/2000/svg" xmlns:xlink="http://www.w3.org/1999/xlink" viewBox="0 0 131.03 80.4"><defs><style>.cls-1{fill:url(#Degradado_sin_nombre_6);}.cls-2{fill:url(#Degradado_sin_nombre_6-2);}.cls-3{fill:url(#Degradado_sin_nombre_6-3);}.cls-4{fill:url(#Degradado_sin_nombre_6-4);}.cls-5{fill:url(#Degradado_sin_nombre_6-5);}.cls-6{fill:url(#Degradado_sin_nombre_6-6);}</style><linearGradient id="Degradado_sin_nombre_6" x1="7.7" y1="42.86" x2="93.86" y2="42.86" gradientUnits="userSpaceOnUse"><stop offset="0" stop-color="#eec6c6"/><stop offset="1" stop-color="#00837c"/></linearGradient><linearGradient id="Degradado_sin_nombre_6-2" x1="81.89" y1="35.29" x2="103.1" y2="35.29" xlink:href="#Degradado_sin_nombre_6"/><linearGradient id="Degradado_sin_nombre_6-3" x1="0" y1="56.99" x2="8.57" y2="56.99" xlink:href="#Degradado_sin_nombre_6"/><linearGradient id="Degradado_sin_nombre_6-4" x1="-221.2" y1="-509.78" x2="-212.63" y2="-509.78" gradientTransform="translate(296.77 -503.45) rotate(-136.81)" xlink:href="#Degradado_sin_nombre_6"/><linearGradient id="Degradado_sin_nombre_6-5" x1="-290.74" y1="-219.26" x2="-279.73" y2="-219.26" gradientTransform="matrix(0.09, -1, 1, 0.09, 362.88, -234.53)" xlink:href="#Degradado_sin_nombre_6"/><linearGradient id="Degradado_sin_nombre_6-6" x1="378.18" y1="-182.81" x2="386.74" y2="-182.81" gradientTransform="matrix(-0.14, 0.99, 0.99, 0.14, 349.46, -307.93)" xlink:href="#Degradado_sin_nombre_6"/></defs><g id="Capa_2" data-name="Capa 2"><g id="Capa_1-2" data-name="Capa 1"><path class="cls-1" d="M79.78,7.82a3.18,3.18,0,0,0-3.11-2.5A3.31,3.31,0,0,0,75,5.78L9.61,43.7a3.91,3.91,0,0,0-1.8,4.24l3.57,14.45a3.91,3.91,0,0,0,3.56,2.91l7.47.3a14.59,14.59,0,0,0,14,14l18.41.76h.61A14.59,14.59,0,0,0,69.84,67.54l20.63.85h.14a3.22,3.22,0,0,0,2.57-1.23,3.27,3.27,0,0,0,.58-2.8ZM55,75.39l-18.41-.76a9.59,9.59,0,0,1-9.15-8.82l37.4,1.53A9.58,9.58,0,0,1,55,75.39ZM84.09,63.12,16,60.34,13.51,50.18l-.64-2.59L75.49,11.28l12.85,52Z"/><path class="cls-2" d="M103,67.48,86.81,1.9A2.5,2.5,0,1,0,82,3.1L98.17,68.68a2.49,2.49,0,0,0,2.42,1.9,2.46,2.46,0,0,0,.6-.07A2.5,2.5,0,0,0,103,67.48Z"/><path class="cls-3" d="M4.93,49.17a2.5,2.5,0,0,0-4.86,1.2L3.64,64.81a2.51,2.51,0,0,0,2.43,1.9,2.54,2.54,0,0,0,.6-.08,2.48,2.48,0,0,0,1.82-3Z"/><path class="cls-4" d="M100.2,22a2.5,2.5,0,0,0,4.36,2.45l7.28-13a2.51,2.51,0,0,0-.47-3,2.27,2.27,0,0,0-.49-.35,2.5,2.5,0,0,0-3.4,1Z"/><path class="cls-5" d="M108.44,27.63a3.21,3.21,0,1,0,1,6.35l18.89-2.86A3.23,3.23,0,0,0,131,28.24a2.91,2.91,0,0,0,0-.78,3.22,3.22,0,0,0-3.66-2.7Z"/><path class="cls-6" d="M106.79,44.52a2.5,2.5,0,1,1,1.87-4.64l13.79,5.57a2.5,2.5,0,1,1-1.87,4.63Z"/></g></g></svg>