<svg xmlns="http://www.w3.org/2000/svg" viewBox="0 0 757.16 257.04"><defs><style>.cls-1{fill:#135653;}.cls-2{fill:#ef8f8f;}.cls-3{fill:#efc8c7;}</style></defs><g id="Capa_2" data-name="Capa 2"><g id="Capa_1-2" data-name="Capa 1"><path class="cls-1" d="M102,257H98.89q-30.52,0-47.67-16.7Q38.31,226.29,38.3,208.92a35.92,35.92,0,0,1,8.25-23.73q8.24-9.9,20.26-9.9,11.14,0,19.61,8.45A28.08,28.08,0,0,1,94,202.91q0,12-9.36,20.93A27.17,27.17,0,0,1,66.37,231l-2.23-.22q10.24,10,28.74,10,18,0,27.18-11.12a29.6,29.6,0,0,0,6.45-19.18q0-16.9-14.47-30.95-8-7.8-33.64-26.74Q63,141,54.57,131.17,38.31,112.45,38.3,90.41q0-33,33.86-47.89Q93.1,34.06,118.49,34q33.64,0,50.58,17.16,12.69,13.59,12.69,31a37.09,37.09,0,0,1-7.35,23Q166,115.81,153,115.81q-10.47,0-18.71-7.81a27.45,27.45,0,0,1-8.25-19.82A28.11,28.11,0,0,1,133,69.69q8.46-9.55,20.71-9.58l2.23.24q-10.24-10.05-29-10-20.49,0-29.41,14.49a31.71,31.71,0,0,0-4,15.81q0,16.94,14.94,31.42,7.58,7.32,34.07,27.16,18.27,13.83,24.06,22.27,15.15,18.07,15.15,39.21Q181.76,237,141,251A128.66,128.66,0,0,1,102,257Z"/><path class="cls-1" d="M276.44,224.2v5.66q0,11.58,9.36,20.49A26.83,26.83,0,0,0,303.39,257H331c0-12,0-22.8,0-32.84a153.72,153.72,0,0,1-54.56,0Z"/><path class="cls-1" d="M191.79,257h54.8V216.29a164.82,164.82,0,0,1-54.8-33.57Z"/><path class="cls-1" d="M361.54,235.21q1.77,8.46,9.12,15.36A27.1,27.1,0,0,0,388,257h27.62V182.72a164.92,164.92,0,0,1-54.43,33.43C361.3,227.89,361.4,234.36,361.54,235.21Z"/><path class="cls-2" d="M401.85,112.69a44.43,44.43,0,0,0-30.3-11.59q-26.51,0-44.11,25.61a2.72,2.72,0,0,1-.66-1.32,48.56,48.56,0,0,0-9.35-12.47A44.3,44.3,0,0,0,286.9,101.1a47.4,47.4,0,0,0-27.18,8.47,50.8,50.8,0,0,0-13.81,12.92,21.36,21.36,0,0,0-2.88-7.36,23.53,23.53,0,0,0-7.81-8.91,27.62,27.62,0,0,0-15.59-5.12H191.79v48.6a143.05,143.05,0,0,0,54.8,42.37V138.76Q254.83,124.06,264,124q12.46,0,12.47,20.72v56.62a140.65,140.65,0,0,0,54.55,0c0-39.91-.09-60.79-.2-62Q339.7,124,348.62,124q12.47,0,12.47,22.06c0,18.16,0,33.23.05,45.84a143.15,143.15,0,0,0,54.52-42.24v-4.94Q415.66,126.06,401.85,112.69Z"/><path class="cls-1" d="M523.26,204.23q-5.34,15.41-12.92,23.63c-3.41,3.86-7.06,5.78-10.92,5.78q-12.48,0-12.48-20.26V129.62c0-5.8-1.19-10.61-3.56-14.49a36.47,36.47,0,0,0-4-5.56,28.24,28.24,0,0,0-15.47-8,164.58,164.58,0,0,1-31.76,63.8v47.81A42.74,42.74,0,0,0,444,243.23Q457.78,257,476.25,257q22.72,0,39.88-20.27a106.61,106.61,0,0,0,17.38-32.31C533.51,204.32,530.09,204.23,523.26,204.23Z"/><path class="cls-3" d="M432.14,123.28a140.38,140.38,0,0,0,8.57-22.18h-8.57Z"/><path class="cls-1" d="M476.25,39.62a29.63,29.63,0,0,0-9.48-4.41A27,27,0,0,0,459.55,34a26.15,26.15,0,0,0-15.06,4.78,32.94,32.94,0,0,0-5.66,4.81,27.16,27.16,0,0,0-6.69,17.82q0,11.14,8.7,19.82a30.23,30.23,0,0,0,3.69,2.32c4.59,3.06,9.51,5,15,5a26.73,26.73,0,0,0,7.2-1.08,28.86,28.86,0,0,0,13.74-8.72,26.54,26.54,0,0,0,6.45-17.38Q486.94,48.54,476.25,39.62Z"/><path class="cls-1" d="M561.13,257Q544,257,530.6,244.79A44.2,44.2,0,0,1,517,212V33.83h27.84a28,28,0,0,1,16,5.34q10.92,8.25,10.92,23.17V213.61c0,6.66,1.34,11.94,4,15.8a10.14,10.14,0,0,0,8.47,4q12.69,0,23.83-29.19h10.24q-8.24,23.21-21.15,36.54Q580.51,257,561.13,257Z"/><path class="cls-1" d="M680.09,257q-33.65,0-58.6-23.4Q597.88,210,597.88,178.39a83.48,83.48,0,0,1,7.57-35.64q12.25-25.14,39.44-36.07a81.9,81.9,0,0,1,29.62-5.58q25.17,0,41.88,14.26,14.7,13.36,14.7,33.41,0,16.93-16.25,32.08a71.48,71.48,0,0,1-45.45,15.6,94.92,94.92,0,0,1-15.59-1.34c0,1,.36,4.24,1.11,9.59q2.67,12.24,7.8,20.26,11.14,15.38,33.63,15.38,17.14,0,33-12.71a80.19,80.19,0,0,0,18.05-23.4h9.8l-.23.23a82.07,82.07,0,0,1-33.18,40.1A80.34,80.34,0,0,1,680.09,257Zm-20.94-70.17q5.34,0,14.47-7.35,9.36-8.7,12-19.61.89-4.46.89-22.5,0-22.48-11.14-22.5-7.57,0-14.92,11.59-6.68,10.47-7.36,32.08v20.7C653.12,184.35,655.14,186.87,659.15,186.87Z"/><path class="cls-2" d="M24,97.83c-3.24-22.31,7.19-43.9,24.4-58.75.46-.39.93-.77,1.4-1.14-.67.49-.67.49,0,0,1-.73,2-1.44,3-2.12,2.21-1.51,4.48-2.92,6.83-4.21a51.19,51.19,0,0,1,12.56-5.19C83,23.26,94.5,22.88,106.4,24.82c6.34,1,12.82-1.65,14.65-8.32,1.56-5.68-1.93-13.6-8.32-14.64C97.06-.7,81.15-1,65.76,3.46,53,7.16,41.65,13.78,31.51,22.24,7.38,42.38-3.49,73.33,1,104.16c.92,6.37,9,9.87,14.64,8.32,6.84-1.88,9.25-8.26,8.32-14.65Z"/><path class="cls-2" d="M460.94,26.83c.82-.21,1.64-.41,2.47-.57l1.06-.19c-1.06.13-1.26.16-.58.08,1.57-.1,3.11-.22,4.68-.18.73,0,1.45.09,2.17.13,2.36.13-1.83-.4.49,0,1.42.27,2.83.57,4.22,1,.81.24,1.59.57,2.4.81.6.23.45.16-.46-.23l1,.45a34.85,34.85,0,0,1,4.1,2.28c.61.4,1.19.82,1.78,1.24-1.57-1.11-.12,0,.15.19.9.76,1.76,1.55,2.59,2.38s1.65,1.72,2.42,2.63l.35.43c.59.74.47.57-.37-.49-.05.19.88,1.23,1,1.37.64,1,1.23,1.93,1.78,2.94.28.52.55,1,.8,1.57.17.35.34.71.5,1.08-.47-1.13-.57-1.37-.33-.75a50,50,0,0,1,2.09,7.72c.39,2.25-.13-2,0,.37.05.72.12,1.43.16,2.15.08,1.79.05,3.57,0,5.36-.23,4.67,4.27,9.14,8.93,8.93a9.13,9.13,0,0,0,8.93-8.93c.68-14-3.89-27.54-14-37.39a45.24,45.24,0,0,0-43-11.63c-4.52,1.19-7.72,6.44-6.24,11a9.08,9.08,0,0,0,11,6.23Z"/></g></g></svg>